<svg width="20" height="21" viewBox="0 0 20 21" fill="none" xmlns="http://www.w3.org/2000/svg">
<path d="M19.2781 7.56776C19.2702 6.26828 18.8264 5.00049 18.0024 3.99419C18.2797 2.83733 18.1925 1.62501 17.7567 0.5157C17.6696 0.301761 17.4953 0.143288 17.2734 0.0719753C16.9644 -0.0310323 15.7837 -0.237047 13.3908 1.31599C12.3607 1.04659 11.299 0.911883 10.2293 0.935654C9.15957 0.919807 8.0978 1.04659 7.06772 1.31599C4.61138 -0.268742 3.32775 -0.015185 3.07419 0.0640516C2.85233 0.135365 2.67801 0.301761 2.59085 0.5157C2.14712 1.61709 2.05996 2.82941 2.33729 3.98626C1.48946 4.99257 1.03781 6.2762 1.06158 7.59153C1.06158 12.4963 3.86656 13.978 6.44175 14.5089C6.30705 14.8338 6.21989 15.1666 6.17235 15.5152C6.16442 15.5548 6.16442 15.5865 6.17235 15.6261V16.9811C3.82694 17.1792 3.32775 15.8084 3.28021 15.6499C3.27228 15.6103 3.25644 15.5786 3.24059 15.5469C2.78894 14.6277 1.98865 13.9146 1.02196 13.5739C0.617858 13.4392 0.174133 13.6611 0.0394303 14.0652C-0.095272 14.4693 0.126591 14.913 0.530697 15.0477C1.06951 15.2379 1.51323 15.6261 1.79056 16.1253C2.09958 17.1316 3.36737 18.7243 6.16442 18.55V19.8257C6.16442 20.2535 6.51306 20.6022 6.94094 20.6022C7.36882 20.6022 7.71746 20.2535 7.71746 19.8257V15.6895C7.77293 15.2379 7.97102 14.8179 8.28004 14.4772C8.5019 14.2712 8.58114 13.9542 8.48606 13.669C8.39097 13.3837 8.13741 13.1777 7.83632 13.146C5.12642 12.8291 2.63047 11.9416 2.63047 7.56776C2.59085 6.49807 3.00288 5.46799 3.76355 4.71524C3.96957 4.49338 4.04088 4.17643 3.93787 3.89118C3.67639 3.13051 3.66054 2.30645 3.89033 1.53785C4.84117 1.75179 5.73654 2.17175 6.51306 2.76602C6.71115 2.90072 6.96471 2.93242 7.1945 2.8611C8.17703 2.56 9.20711 2.4253 10.2372 2.44907C11.2673 2.4253 12.2894 2.56 13.2799 2.8611C13.5097 2.93242 13.7632 2.90072 13.9613 2.76602C14.7061 2.19552 15.5619 1.77556 16.4731 1.54578C16.7029 2.3223 16.6791 3.15428 16.4176 3.92287C16.3305 4.18436 16.3859 4.46961 16.5682 4.67562C17.3051 5.46007 17.7171 6.49014 17.733 7.56776C17.733 11.9258 15.1023 12.837 12.5271 13.146C12.2102 13.1777 11.9487 13.4075 11.8695 13.7165C11.7902 14.0255 11.9012 14.3504 12.1547 14.5406C12.432 14.7466 12.749 15.3329 12.749 16.3155V19.8098C12.749 20.2377 13.0976 20.5863 13.5255 20.5863C13.9534 20.5863 14.302 20.2377 14.302 19.8098V16.2917C14.3099 15.6737 14.199 15.0635 13.9692 14.4851C16.0532 14.0493 19.2781 12.6785 19.2781 7.56776Z" fill="#4BA8EB"/>
</svg>
